<?xml version="1.0" standalone="no"?>
<!DOCTYPE svg PUBLIC "-//W3C//DTD SVG 20010904//EN"
 "http://www.w3.org/TR/2001/REC-SVG-20010904/DTD/svg10.dtd">
<svg version="1.0" xmlns="http://www.w3.org/2000/svg"
 width="144.000000pt" height="144.000000pt" viewBox="0 0 144.000000 144.000000"
 preserveAspectRatio="xMidYMid meet">
<metadata>
Created by potrace 1.11, written by Peter Selinger 2001-2013
</metadata>
<g transform="translate(0.000000,144.000000) scale(0.100000,-0.100000)"
fill="#000000" stroke="none">
<path d="M688 1315 c-2 -2 -34 -6 -71 -10 -191 -18 -375 -111 -456 -229 -130
-189 -148 -394 -51 -591 127 -258 463 -385 703 -264 118 59 206 155 263 286
l33 78 88 2 c49 1 118 2 154 2 l65 1 -3 147 c-2 81 -6 149 -8 151 -2 2 -64 3
-139 3 -75 -1 -136 2 -137 6 -6 68 -30 103 -67 98 -90 -11 -329 -143 -405
-223 -19 -20 -35 -28 -48 -25 -28 8 -24 16 29 72 56 59 99 141 135 261 44 146
45 197 4 219 -22 11 -82 22 -89 16z" fill="BurlyWood" />
</g>
</svg>